<?xml version="1.0" encoding="utf-8"?>
<!-- Generator: Adobe Illustrator 16.0.0, SVG Export Plug-In . SVG Version: 6.00 Build 0)  -->
<!DOCTYPE svg PUBLIC "-//W3C//DTD SVG 1.1//EN" "http://www.w3.org/Graphics/SVG/1.1/DTD/svg11.dtd">
<svg version="1.1" id="Layer_1" xmlns="http://www.w3.org/2000/svg" xmlns:xlink="http://www.w3.org/1999/xlink" x="0px" y="0px"
	 width="80px" height="10px" viewBox="0 0 80 10" enable-background="new 0 0 80 10" xml:space="preserve">
<g>
	<path fill="#5255A5" d="M61.8,4.148c-0.16-0.484-0.58-0.944-0.58-0.944s-0.635-0.822-1.878-1.103
		c-1.064-0.223-1.901,0.247-1.901,0.247s-0.761,0.305-1.331,0.934c-0.911,0.876-1.171,2.153-1.171,2.153s-0.349,1.113,0.202,1.993
		l0.601,0.726c0.846,0.707,1.752,0.779,1.752,0.779s0.73,0.165,1.582-0.058c0.744-0.15,1.287-0.518,1.287-0.518
		s1.233-0.683,1.572-2.076L61.8,4.148z M59.879,6.466c0,0-0.493,0.861-1.578,0.76c-1.273-0.131-1.422-1.249-1.422-1.249
		s-0.176-0.822,0.608-1.539c0.795-0.668,1.622-0.566,1.622-0.566s0.557,0.053,0.842,0.973C60.318,6.017,59.879,6.466,59.879,6.466z"
		/>
	<path fill="#DDB10A" d="M72.721,3.892C71.874,2.508,70.384,2.3,70.384,2.3s-0.474-0.16-1.491-0.024
		c-1.906,0.363-2.569,1.83-2.569,1.83s-0.682,1.074-0.41,2.375l0.832,1.646c0.614,0.575,0.865,0.575,0.904,0.61
		c0.813,0.367,1.758,0.154,1.758,0.154s1.189-0.116,2.279-0.963c0.869-0.638,1.247-1.577,1.247-1.577L72.721,3.892z M70.404,6.718
		c-1.37,0.822-2.232-0.077-2.232-0.077s-0.381-0.252-0.464-1.017c-0.059-0.885,0.822-1.345,0.822-1.345s0.464-0.285,1.046-0.242
		c0.58,0.043,0.764,0.005,1.233,0.353c0.445,0.402,0.416,0.697,0.416,0.697S71.385,6.084,70.404,6.718z"/>
	<path fill="#00958A" d="M72.934,6.351c0,0,0.028,0.773-0.092,0.962c-0.165,0.354-0.14,0.697-0.14,0.697s-0.111,1.045,1.099,1.219
		c0.832-0.004,0.933-0.697,0.948-0.991c0.049-0.233,0.028-1.312,0.028-1.312l1.078,0.881c0,0,0.786,0.658,1.245,1.041
		c0.479,0.377,0.601,0.445,0.601,0.445s0.102,0.121,0.469,0.077c0.296,0.004,0.565-0.262,0.565-0.262s0.344-0.251,0.432-0.691
		c0.106-0.523-0.3-0.779-0.3-0.779s-1.5-1.21-2.518-2.042c0.684-0.372,1.013-0.628,1.013-0.628s0.948-0.629,1.15-1.592
		c0.282-1.06-0.518-1.476-0.518-1.476s-0.498-0.358-0.92-0.547c-1.06-0.518-2.046-0.412-2.046-0.412s-1.404-0.096-2.318,1.031
		c-0.421,0.546-0.159,1.263-0.159,1.263s0.052,0.115,0.169,0.658C72.956,4.985,72.934,6.351,72.934,6.351z M74.772,4.202
		L74.68,2.938c0,0,0.886-0.019,1.255,0.043c0.726,0.111,0.687,0.315,0.687,0.315s-0.023,0.256-0.575,0.508
		C75.445,4.095,74.772,4.202,74.772,4.202z"/>
	<path fill="#79AD36" d="M65.913,6.48c-0.408-0.089-1.06,0.078-1.06,0.078s-0.909,0.334-1.051,0.329
		c-0.053-0.078-0.169-1.563-0.135-2.159c0.019-1.049-0.069-1.906-0.069-1.906s-0.042-1.012-0.584-1.612
		c-0.64-0.643-1.085-0.367-1.341-0.213c-0.614,0.552-0.329,1.224-0.329,1.224l0.32,0.905c0,0,0.153,0.387,0.135,1.021l0.135,2.134
		c0,0.286,0.233,2.207,0.233,2.207s0.023,0.625,0.624,0.736c0.614,0.101,1.22-0.203,1.475-0.324
		c0.257-0.122,0.596-0.228,0.596-0.228s0.281-0.063,0.562-0.087c0.658-0.063,0.895-0.179,0.895-0.179s0.256-0.039,0.427-0.281
		C66.916,7.883,67.123,6.747,65.913,6.48z"/>
	<path fill="#B80545" d="M55.141,7.429c-0.432-0.129-0.928-0.044-0.928-0.044s-1.405,0.136-2.136-0.019
		c-1.132-0.198-1.093-1.418-1.093-1.418s-0.039-0.808,0.644-1.901c0.842-1.351,1.771-1.592,1.771-1.592s0.232-0.087,0.45,0.029
		c0.137,0.784,0.896,0.779,0.896,0.779s1.094,0.072,1.041-1.253c-0.126-1.088-1.176-1.239-1.616-1.34
		c-1.322-0.237-2.178,0.469-2.178,0.469s-0.886,0.479-1.945,2.149c-0.721,1.035-0.809,1.849-0.809,1.849S49.15,5.329,49.184,6.19
		c-0.019,0.672,0.232,1.161,0.232,1.161s0.382,1.158,1.592,1.631c0.735,0.305,1.811,0.3,1.811,0.3s1.04-0.015,1.839-0.058
		c0.435,0.034,0.644-0.194,0.644-0.194s0.488-0.32,0.44-0.876C55.741,8.155,55.646,7.58,55.141,7.429z"/>
	<g>
		<g>
			<g>
				<g>
					<path fill="#3D5763" d="M22.086,9.059h-1.665l-0.223-5.014l-2.164,5.014h-1.11L16,4.526l-1.443,4.533h-2.831L11.3,6.635H9.376
						L8.285,9.059H6.545l3.571-8.104h2.053l1.092,6.549l2.127-6.549h1.646l0.814,4.44l1.888-4.44h1.998L22.086,9.059z M11.05,5.062
						L10.746,3.49l-0.703,1.572H11.05z"/>
					<polygon fill="#3D5763" points="26.86,9.059 27.138,7.319 24.232,7.319 24.463,5.876 26.989,5.876 27.268,4.137 24.714,4.137 
						24.936,2.694 27.84,2.694 28.118,0.955 23.511,0.955 22.216,9.059 					"/>
					<polygon fill="#3D5763" points="48.487,0.955 46.546,0.955 44.899,3.601 43.863,0.955 41.957,0.955 43.918,5.229 43.314,9.059 
						44.979,9.059 45.49,5.673 					"/>
					<path fill="#3D5763" d="M36.081,4.31c0.518-2.241,2.432-3.711,4.277-3.285s2.922,2.588,2.405,4.829
						c-0.516,2.24-2.432,3.71-4.277,3.284C36.641,8.711,35.564,6.549,36.081,4.31z M38.601,7.515
						c0.881,0.394,1.959-0.378,2.41-1.726c0.448-1.348,0.099-2.76-0.783-3.155C39.347,2.24,38.27,3.014,37.82,4.361
						C37.37,5.709,37.72,7.122,38.601,7.515z"/>
					<path fill="#3D5763" d="M2.994,1.677C1.407,2.659,0.644,4.156,0.848,6.19c0.236,2.361,3.293,3.849,5.883,2.35
						c0.227-0.131,0.138-0.11,0.222-0.185l0.518-3.293h-3.09L4.145,6.579h1.292L5.287,7.394C4.548,7.689,3.29,7.579,2.753,6.616
						C2.414,6.007,2.099,4.647,3.53,3.397C4.695,2.38,6.712,2.195,7.878,2.731c0,0,0.148-0.851,0.259-1.647
						C5.898,0.308,4.159,0.955,2.994,1.677z"/>
					<path fill="#3D5763" d="M32.083,2.708c0,0,0.037,0,1.084,0c1.175,0,0.937,1.505-0.184,1.505c-0.918,0-1.156,0-1.156,0
						L32.083,2.708z M31.57,5.866c0,0,0.349,0,1.395,0c1.323,0,1.286,1.616-0.183,1.616c-0.917,0-1.468,0-1.468,0L31.57,5.866z
						 M30.652,1l-1.285,8.042c0,0,2.662,0,3.745,0c1.542,0,3.797-2.273,1.745-4.131C36.968,2.727,34.875,1.019,33.755,1
						c-0.9-0.015-3.121,0-3.121,0H30.652z"/>
				</g>
			</g>
		</g>
	</g>
</g>
</svg>
